HIERARCHY
ROOT RootJoint
{
    OFFSET   0.000000   0.000000   0.000000
    CHANNELS 6 Xposition Yposition Zposition Xrotation Yrotation Zrotation
    JOINT pelvis_lowerback
    {
        OFFSET   0.000000   0.093605   0.000000
        CHANNELS 3 Xrotation Yrotation Zrotation
        JOINT lowerback_torso
        {
            OFFSET   0.000000   0.100000   0.000000
            CHANNELS 3 Xrotation Yrotation Zrotation
            JOINT torso_head
            {
                OFFSET   0.000000   0.282350   0.000000
                CHANNELS 3 Xrotation Yrotation Zrotation
                End Site
                {
                    OFFSET   0.000000   0.192650   0.000000
                }
            }
            JOINT rTorso_Clavicle
            {
                OFFSET  -0.001000   0.157500   0.000000
                CHANNELS 3 Xrotation Yrotation Zrotation
                JOINT rShoulder
                {
                    OFFSET  -0.117647   0.000000   0.000000
                    CHANNELS 3 Xrotation Yrotation Zrotation
                    JOINT rElbow
                    {
                        OFFSET  -0.245000   0.000000   0.000000
                        CHANNELS 3 Xrotation Yrotation Zrotation
                        JOINT rWrist
                        {
                            OFFSET  -0.240000   0.000000   0.000000
                            CHANNELS 3 Xrotation Yrotation Zrotation
                            End Site
                            {
                                OFFSET  -0.116353  -0.002500   0.000000
                            }
                        }
                    }
                }
            }
            JOINT lTorso_Clavicle
            {
                OFFSET   0.001000   0.157500   0.000000
                CHANNELS 3 Xrotation Yrotation Zrotation
                JOINT lShoulder
                {
                    OFFSET   0.117647   0.000000   0.000000
                    CHANNELS 3 Xrotation Yrotation Zrotation
                    JOINT lElbow
                    {
                        OFFSET   0.245000   0.000000   0.000000
                        CHANNELS 3 Xrotation Yrotation Zrotation
                        JOINT lWrist
                        {
                            OFFSET   0.240000   0.000000   0.000000
                            CHANNELS 3 Xrotation Yrotation Zrotation
                            End Site
                            {
                                OFFSET   0.116353  -0.002500   0.000000
                            }
                        }
                    }
                }
            }
        }
    }
    JOINT rHip
    {
        OFFSET  -0.100000  -0.051395   0.000000
        CHANNELS 3 Xrotation Yrotation Zrotation
        JOINT rKnee
        {
            OFFSET   0.000000  -0.410000   0.000000
            CHANNELS 3 Xrotation Yrotation Zrotation
            JOINT rAnkle
            {
                OFFSET   0.000000  -0.390000   0.000000
                CHANNELS 3 Xrotation Yrotation Zrotation
                JOINT rToeJoint
                {
                    OFFSET   0.000000  -0.050000   0.130000
                    CHANNELS 3 Xrotation Yrotation Zrotation
                    End Site
                    {
                        OFFSET  -0.010000   0.002000   0.060000
                    }
                }
            }
        }
    }
    JOINT lHip
    {
        OFFSET   0.100000  -0.051395   0.000000
        CHANNELS 3 Xrotation Yrotation Zrotation
        JOINT lKnee
        {
            OFFSET   0.000000  -0.410000   0.000000
            CHANNELS 3 Xrotation Yrotation Zrotation
            JOINT lAnkle
            {
                OFFSET   0.000000  -0.390000   0.000000
                CHANNELS 3 Xrotation Yrotation Zrotation
                JOINT lToeJoint
                {
                    OFFSET   0.000000  -0.050000   0.130000
                    CHANNELS 3 Xrotation Yrotation Zrotation
                    End Site
                    {
                        OFFSET   0.010000   0.002000   0.060000
                    }
                }
            }
        }
    }
}
MOTION
Frames: 11
Frame Time:   0.008333
 -2.376719   0.925631   3.975860   0.000000   0.000000   0.000000   0.000000   0.000000   0.000000   0.000000   0.000000   0.000000   0.000000   0.000000   0.000000   0.000000   0.000000   0.000000   0.000000   0.000000   0.000000   0.000000   0.000000   0.000000   0.000000   0.000000   0.000000   0.000000   0.000000   0.000000   0.000000   0.000000   0.000000   0.000000   0.000000   0.000000   0.000000   0.000000   0.000000   0.000000   0.000000   0.000000   0.000000   0.000000   0.000000   0.000000   0.000000   0.000000   0.000000   0.000000   0.000000   0.000000   0.000000   0.000000   0.000000   0.000000   0.000000   0.000000   0.000000   0.000000   0.000000   0.000000   0.000000
 -2.377222   0.925913   3.974603   0.400778   0.116112  -0.259576  -0.198767  -0.039751   0.047143   0.058108  -0.447211   0.158223  -0.359487  -0.508570   0.309999   0.193766  -0.567736   0.208237  -0.138477   0.236308   2.205806   0.074696   3.611483  -0.011748   0.004178  -1.458670  -2.788678   0.487329   0.985280   0.219050   1.410082   0.916302  -2.151619   0.067702  -3.796825   0.072768   0.087063   0.599146   2.285975  -1.148737  -0.108680   0.439522   2.955416  -0.004689   0.000477  -3.814705  -0.160864  -0.212815  -0.001123  -0.000000   0.000002  -1.935483  -0.106460   0.232048   3.371413   0.000713   0.000510  -1.899170   0.628498   0.254841   0.656980  -0.001304   0.003717
 -2.377781   0.926325   3.973713   0.639812   0.109316  -0.587352  -0.349923  -0.011384   0.109835   0.200562  -0.812879   0.391486  -0.653342  -1.020409   0.605815   0.378107  -1.064318   1.091772  -0.304523   0.565414   4.954413   0.178443   7.342190  -0.019159   0.028855  -1.949492  -4.886620   0.965721   2.022994  -0.107034   2.841230   1.812161  -4.756019   0.164430  -7.658010   0.130967   0.266159   0.413923   4.080420  -1.941661  -0.214567   1.020928   6.261447  -0.011291  -0.001510  -7.639657  -0.304010  -0.429452  -0.161490   0.000053   0.000359  -3.891663  -0.198788   0.449236   6.830852   0.003579  -0.002036  -3.656374   1.216107   0.517541   1.280173  -0.001816   0.005807
 -2.378240   0.926512   3.973164   0.822903  -0.013834  -0.925469  -0.517619   0.089137   0.193804   0.336745  -1.078231   0.658390  -0.916218  -1.501927   0.870872   0.561567  -1.479500   2.387715  -0.494853   0.923894   8.054217   0.288782  11.090728  -0.021018   0.055081  -2.155421  -6.187654   1.423760   3.022580  -0.792522   4.298716   2.658940  -7.668041   0.269914 -11.512400   0.174088   0.451035   0.110714   5.253865  -2.459941  -0.321232   1.647233   9.674510  -0.018371  -0.005505 -11.260909  -0.425096  -0.638983  -0.313501   0.000130   0.000746  -5.859001  -0.288945   0.589230  10.063058   0.007629  -0.007265  -5.296591   1.755177   0.782030   1.861360  -0.001688   0.006531
 -2.378565   0.926222   3.972881   0.976246  -0.237000  -1.256469  -0.702104   0.249415   0.303581   0.446256  -1.258237   0.947379  -1.162301  -1.952131   1.110183   0.751160  -1.828719   3.922616  -0.704653   1.294048  11.394245   0.394225  14.842253  -0.018882   0.070337  -2.283987  -6.881741   1.866861   3.977706  -1.702018   5.794712   3.444137 -10.801067   0.373170 -15.355923   0.205840   0.622377  -0.168507   5.932667  -2.756871  -0.425433   2.282381  13.154507  -0.025579  -0.010663 -14.638849  -0.526114  -0.838623  -0.451716   0.000196   0.001103  -7.842098  -0.374670   0.647537  13.040594   0.011751  -0.013919  -6.832085   2.248910   1.045018   2.386600  -0.001170   0.006306
 -2.378757   0.925242   3.972799   1.103930  -0.538564  -1.574885  -0.896444   0.461319   0.441145   0.532875  -1.361248   1.256703  -1.394637  -2.373419   1.328028   0.954317  -2.124649   5.629101  -0.918117   1.646768  14.781069   0.486783  18.591172  -0.014756   0.067956  -2.406367  -7.079782   2.302626   4.898831  -2.779505   7.281606   4.136634 -13.994944   0.465869 -19.185960   0.227700   0.772330  -0.381529   6.191741  -2.864902  -0.523341   2.909377  16.691172  -0.032782  -0.016120 -17.789589  -0.610103  -1.028754  -0.574797   0.000237   0.001387  -9.836747  -0.453334   0.634502  15.777230   0.015298  -0.020839  -8.270103   2.701103   1.303974   2.858913  -0.000475   0.005546
 -2.378833   0.923401   3.972860   1.209404  -0.887932  -1.879377  -1.097189   0.718746   0.605071   0.601701  -1.393414   1.583102  -1.613441  -2.768095   1.529109   1.171093  -2.369068   7.436679  -1.127165   1.977906  18.099937   0.556301  22.197558  -0.010124   0.056640  -2.499711  -6.910322   2.736193   5.787555  -3.968234   8.721985   4.721377 -17.126540   0.543167 -23.003904   0.241032   0.899275  -0.523868   6.122807  -2.800866  -0.611468   3.519907  20.239043  -0.039660  -0.020808 -20.727998  -0.679448  -1.209993  -0.683765   0.000258   0.001577 -11.840285  -0.523436   0.562990  18.290673   0.018031  -0.027002  -9.616707   3.115361   1.556851   3.284173   0.000261   0.004584
 -2.378446   0.920080   3.972263   1.333922  -1.228350  -1.866380  -1.184149   1.059007   0.575701   0.683923  -1.377575   1.787413  -2.096288  -2.875788   1.342266   1.189193  -2.571193   8.663464  -1.676281   2.449500  21.422071   0.590176  25.833536   0.002758  -0.077639  -3.156671  -5.839709   3.110035   6.662244  -4.725166  10.378615   4.824859 -20.014286   0.589742 -26.787786   0.261861   0.816532  -0.661061   5.358330  -2.131538  -0.670503   3.659816  22.025930  -0.036610  -0.021332 -23.198161  -0.588237  -1.348391  -0.576272   0.000231   0.000934 -14.549300  -0.408508   0.133002  22.164014   0.025394  -0.034633 -11.150080   3.469385   1.748664   3.491094   0.000706   0.003804
 -2.377893   0.915433   3.971275   1.438164  -1.808092  -1.767763  -1.196329   1.550048   0.526953   0.787303  -1.213544   1.928557  -2.560796  -2.961467   1.132371   1.162032  -2.602989   9.654856  -2.254060   2.972705  24.431526   0.602025  29.510986   0.008571  -0.195687  -3.709419  -4.835218   3.460745   7.442538  -5.283265  11.916118   4.829819 -22.605827   0.615979 -30.587578   0.277577   0.748517  -0.856320   4.657539  -1.330922  -0.683112   3.627800  23.506292  -0.033402  -0.023814 -25.512384  -0.497917  -1.471530  -0.471371   0.000289   0.000242 -17.364595  -0.247189  -0.321173  26.028533   0.027747  -0.049333 -12.574198   3.796904   1.938172   3.689258   0.000977   0.002704
 -2.377287   0.909567   3.970091   1.528609  -2.519270  -1.647542  -1.165409   2.116160   0.481251   0.904935  -0.948386   2.049033  -2.990356  -3.038890   0.933027   1.089744  -2.514244  10.468479  -2.855662   3.520388  27.171192   0.599331  33.216556   0.009773  -0.271941  -4.064785  -4.006936   3.789212   8.157500  -5.706845  13.341223   4.774119 -24.950174   0.628427 -34.393167   0.288515   0.689188  -1.076223   4.115196  -0.454924  -0.683705   3.512515  24.874648  -0.030720  -0.026878 -27.673071  -0.411828  -1.582602  -0.373444   0.000380  -0.000381 -20.176048  -0.080982  -0.722774  29.621698   0.025048  -0.064332 -13.903393   4.097582   2.124339   3.874263   0.001090   0.001557
 -2.376677   0.902565   3.968842   1.611248  -3.264406  -1.524362  -1.111026   2.718354   0.437710   1.022023  -0.619181   2.158098  -3.385620  -3.110625   0.748935   0.970124  -2.337606  11.143255  -3.480816   4.081899  29.681377   0.580879  36.716782   0.007655  -0.309063  -4.157546  -3.329423   4.095554   8.813986  -6.029545  14.661202   4.673923 -27.080801   0.631571 -38.201993   0.294980   0.635552  -1.302954   3.705149   0.483002  -0.679080   3.350714  26.167482  -0.028388  -0.029324 -29.688859  -0.329442  -1.684231  -0.280680   0.000472  -0.000871 -22.958140   0.081912  -1.061618  32.928909   0.019562  -0.075498 -15.146715   4.373841   2.305495   4.039964   0.001090   0.000598
